<svg width="160" height="415" viewBox="0 0 160 415" fill="none" xmlns="http://www.w3.org/2000/svg">
<path fill-rule="evenodd" clip-rule="evenodd" d="M1.35155 177.83C1.62247 176.904 2.07087 175.906 2.34856 175.611C2.62624 175.317 2.5439 174.931 2.16621 174.751C1.28786 174.335 1.32684 172.553 2.21416 172.583C2.62147 172.597 2.59292 172.122 2.14181 171.374C1.56 170.41 1.6187 169.872 2.41225 168.899C3.17361 167.964 3.22229 167.601 2.61008 167.435C1.98833 167.266 1.98996 166.933 2.61827 166.036C3.18025 165.232 3.21997 164.748 2.74202 164.508C2.35723 164.316 2.02743 163.249 2.00944 162.137C1.98358 160.547 2.30596 159.967 3.5196 159.421C4.36797 159.04 4.74 158.717 4.34708 158.704C3.55851 158.677 3.31048 153.102 4.06166 152.307C4.31656 152.037 4.49962 150.42 4.46946 148.714C4.42261 146.081 4.64995 145.449 5.97445 144.529C7.18645 143.687 7.36461 143.291 6.77175 142.755C5.67263 141.762 6.15435 137.952 7.45772 137.332C8.33336 136.916 8.37848 136.678 7.70039 136.064C7.10351 135.525 7.08692 135.265 7.64189 135.155C8.13399 135.057 8.474 133.509 8.57018 130.93C8.65347 128.691 9.24666 125.686 9.88898 124.253C10.5313 122.819 11.0016 120.93 10.9351 120.054C10.8679 119.179 11.1419 118.204 11.5425 117.888C11.9438 117.572 12.2971 116.891 12.3276 116.375C12.444 114.413 13.4409 111.59 14.3335 110.694C14.8444 110.181 15.2738 108.874 15.2871 107.79C15.3011 106.705 15.6399 105.418 16.0402 104.929C16.4412 104.439 17.0233 103.019 17.3346 101.773C17.6459 100.526 18.1736 99.516 18.5083 99.5273C18.8422 99.5386 19.1288 99.1634 19.1447 98.694C19.1606 98.224 19.6521 97.392 20.237 96.8455C20.8218 96.2986 21.1253 95.5045 20.9111 95.0806C20.6975 94.6567 21.19 93.4731 22.0058 92.4504C22.9327 91.2887 23.2323 90.4689 22.8046 90.2664C22.3884 90.069 22.3703 89.7316 22.7596 89.4051C23.1115 89.1096 24.4318 87.0957 25.6941 84.9292C26.9557 82.7627 28.6051 80.4775 29.3581 79.8506C30.1118 79.2242 30.5682 78.3949 30.3733 78.0082C30.1308 77.5271 30.5009 77.3217 31.5473 77.3571C32.691 77.3958 32.9032 77.2514 32.3884 76.7842C31.9095 76.3494 32.0108 75.586 32.7226 74.2698C33.2844 73.2304 33.7509 72.3258 33.7586 72.2602C33.7663 72.1945 34.4677 72.1605 35.316 72.1854C36.4305 72.2178 36.6072 72.1078 35.9528 71.7903C35.1963 71.4231 35.2037 71.1852 35.9944 70.3556C36.5161 69.8085 37.1379 69.3677 37.3765 69.3757C37.6145 69.3838 38.0446 68.4785 38.3323 67.3634C39.0924 64.4141 41.0458 61.3213 42.1258 61.3578C42.6401 61.3752 43.0717 61.0762 43.0847 60.6936C43.0976 60.3106 43.8938 59.4442 44.853 58.7685C45.8129 58.0923 46.4428 57.3506 46.2529 57.12C46.063 56.8894 46.5504 56.3435 47.3361 55.9072C48.1224 55.4715 48.7821 54.6221 48.8024 54.02C48.8248 53.3592 49.2543 52.9393 49.8852 52.9607C50.4598 52.9801 51.242 52.4653 51.623 51.8167C52.0039 51.1681 52.863 50.6526 53.5324 50.6714C54.4336 50.6961 54.5222 50.5947 53.8738 50.2798C53.1761 49.9406 53.2585 49.5556 54.2813 48.3798C54.9877 47.5685 55.951 46.9165 56.4221 46.9305C56.8939 46.945 57.294 46.5241 57.3119 45.9955C57.3298 45.4669 57.5912 45.0428 57.8936 45.053C58.1954 45.0632 59.1499 44.1213 60.015 42.9599C60.8795 41.7984 61.8998 40.8587 62.2818 40.8716C62.6637 40.8845 62.9874 40.5708 63.0008 40.1743C63.0143 39.774 63.6348 39.4741 64.3966 39.4999C65.1584 39.5257 65.7789 39.2258 65.7924 38.8255C65.8058 38.429 66.1254 38.1151 66.5025 38.1279C66.8797 38.1406 67.198 37.881 67.2099 37.5504C67.243 36.6533 71.4522 33.5801 71.4614 34.4469C71.4651 34.8439 71.8829 34.4251 72.3894 33.5161C72.8952 32.6071 74.1633 31.2654 75.2061 30.5343C76.2489 29.8032 77.1081 29.0207 77.1157 28.7948C77.1234 28.569 77.5842 28.3998 78.1403 28.4186C78.6965 28.4374 79.6165 27.8653 80.1852 27.1465C80.7539 26.4282 82.6625 25.0433 84.4262 24.0691C86.1898 23.0949 87.6409 22.0639 87.6506 21.778C87.6727 21.1235 91.7414 18.7768 92.7989 18.8087C93.2316 18.8214 94.1262 18.2099 94.7876 17.45C95.4483 16.6896 96.7865 15.955 97.7605 15.8172C98.7344 15.6798 99.5391 15.3323 99.5488 15.0449C99.5774 14.2011 103.239 11.9484 104.513 11.9915C105.156 12.0132 105.871 11.7127 106.102 11.3236C106.332 10.9345 107.034 10.6335 107.661 10.6547C108.29 10.676 109.318 10.3321 109.947 9.89012C111.51 8.79319 113.924 7.98002 115.461 8.032C116.163 8.05576 117.44 7.67945 118.3 7.1957C119.16 6.71244 120.267 6.44006 120.76 6.59047C121.305 6.75708 121.627 6.54091 121.581 6.03854C121.466 4.7713 122.91 4.75569 123.79 6.01511C124.221 6.63249 124.447 6.78642 124.295 6.35694C124.056 5.68445 126.039 4.06002 127.057 4.09447C127.249 4.10097 128.71 3.58173 130.302 2.94042C132.703 1.97383 133.418 1.87919 134.48 2.38755C135.399 2.82756 136.018 2.8634 136.667 2.51446C137.637 1.99305 139.793 2.42294 139.769 3.1327C139.761 3.36864 140.034 3.57128 140.375 3.58284C140.718 3.59441 140.85 3.16591 140.671 2.63066C140.452 1.97811 140.683 1.66885 141.37 1.6921C141.933 1.71117 142.786 1.41815 143.264 1.04127C144.025 0.441598 144.345 0.482247 145.832 1.3687C147.685 2.47392 150.078 2.78723 150.107 1.92898C150.12 1.54022 150.37 1.5429 151 1.939C151.482 2.24106 152.547 2.38871 153.367 2.26684C155.352 1.97219 157.167 3.33975 156.522 4.64334C156.23 5.23436 155.655 5.50885 155.079 5.333C154.545 5.17015 154.111 5.32817 154.099 5.69002C154.075 6.39257 155.929 6.96381 157.326 6.68392C157.801 6.58887 158.2 6.2045 158.213 5.83016C158.242 4.96374 159.355 4.97972 159.795 5.85287C159.979 6.21703 159.523 6.8511 158.783 7.26193C157.315 8.07678 155.387 8.20688 155.411 7.48895C155.429 6.94449 152.503 6.91141 151.93 7.4496C151.706 7.65947 150.786 7.90548 149.886 7.99578C148.986 8.08655 147.975 8.48056 147.642 8.87098C147.307 9.26137 146.182 9.55237 145.141 9.51715C143.939 9.47649 142.415 9.98302 140.968 10.9044C139.341 11.94 138.011 12.3434 136.33 12.3111C134.561 12.2777 133.964 12.4764 133.941 13.1073C133.913 13.8737 133.233 14.1186 132.108 13.7669C131.87 13.6925 131.418 14.0837 131.102 14.6354C130.663 15.4038 130.116 15.5695 128.769 15.3426C127.464 15.1224 127.002 15.2467 126.982 15.8224C126.968 16.2501 126.648 16.589 126.27 16.5763C125.893 16.5635 125.574 16.8774 125.56 17.2739C125.547 17.6703 125.205 17.9835 124.802 17.9698C124.397 17.9562 123.572 18.2669 122.969 18.6603C122.192 19.1661 121.662 19.2189 121.158 18.8395C120.082 18.03 119.267 18.1607 119.461 19.1122C119.562 19.6058 119.205 19.9454 118.606 19.9252C118.04 19.906 117.381 20.3167 117.141 20.8378C116.901 21.3589 116.348 21.7193 115.912 21.6381C115.477 21.5575 115.111 21.778 115.099 22.1283C115.087 22.4786 114.317 23.2295 113.388 23.797C111.813 24.7593 111.679 24.7688 111.404 23.9339C111.198 23.3126 111.071 23.43 110.985 24.3176C110.899 25.2129 109.976 26.0467 107.906 27.1C103.468 29.3577 102.402 30.153 102.586 31.067C102.697 31.6134 102.225 31.9319 101.206 31.9989C100.273 32.0597 99.6471 32.4344 99.6298 32.9433C99.6134 33.4282 98.496 34.152 96.9978 34.6483C95.5662 35.1223 94.3455 35.7146 94.2862 35.9642C93.9043 37.5755 92.8317 38.6804 91.2618 39.08C90.2668 39.3335 89.2218 39.4978 88.9408 39.4455C88.6597 39.3936 88.3727 39.6192 88.3046 39.9479C88.2358 40.2761 88.1007 40.7588 88.004 41.0202C87.9073 41.2815 87.7793 41.8978 87.7187 42.3898C87.6398 43.0385 87.2354 43.2024 86.2466 42.9861C85.1624 42.7493 84.8757 42.9253 84.8446 43.845C84.8231 44.4808 84.4551 44.9894 84.0272 44.9749C83.0192 44.9408 80.2109 46.9251 78.8719 48.617C78.2954 49.3446 77.3454 50.0519 76.7607 50.188C76.1759 50.3246 75.6827 50.8626 75.665 51.384C75.6474 51.9049 75.3922 52.4265 75.0986 52.5421C74.8043 52.6577 74.6777 51.8543 74.8171 50.7569C75.0429 48.9743 74.9811 48.8746 74.2364 49.8236C73.6617 50.5556 73.0134 50.7853 72.1505 50.5622C70.6186 50.1669 70.5264 50.6603 71.916 51.8133C72.8682 52.6037 72.8011 52.7795 71.1283 53.8693C70.1224 54.5247 69.6227 55.0716 70.017 55.085C70.9536 55.1167 70.9038 56.4279 69.959 56.6153C69.5582 56.6946 69.1242 57.1851 68.9954 57.7051C68.8484 58.2962 68.2308 58.6327 67.3476 58.6029C65.3844 58.5365 64.7537 59.0799 65.7495 59.9805C66.3097 60.4873 66.3385 60.7336 65.8351 60.7166C65.4196 60.7026 64.8671 61.2251 64.6082 61.8778C64.3493 62.5306 63.7077 63.0501 63.1831 63.0324C62.5749 63.0118 62.2105 63.5354 62.1787 64.4753C62.1303 65.9069 59.1925 69.243 56.8921 70.479C56.2873 70.804 55.9432 71.2532 56.1272 71.4769C56.3118 71.7006 55.8183 72.6336 55.0314 73.5499C54.2446 74.4667 53.7577 75.2219 53.9497 75.2284C54.6601 75.2524 51.8506 78.3066 50.5936 78.876C49.8776 79.2011 49.4706 79.6838 49.6889 79.9491C49.9078 80.2148 49.7773 80.6824 49.3997 80.989C49.0221 81.2952 48.4633 82.5118 48.1584 83.6922C47.8528 84.8725 46.8319 86.6195 45.89 87.5743C44.9474 88.5287 44.1611 89.7539 44.1427 90.2969C44.1243 90.8394 43.572 92.0701 42.9147 93.0317C42.2575 93.9933 41.7746 94.9738 41.8421 95.2109C41.9096 95.4479 41.3012 96.1028 40.4906 96.6662C39.4234 97.4075 39.1269 98.0364 39.4175 98.9429C39.6745 99.7454 39.4124 100.576 38.6885 101.253C38.0668 101.834 37.5263 103.242 37.4878 104.381C37.4422 105.728 37.0738 106.531 36.4331 106.681C35.892 106.807 35.2635 107.223 35.037 107.605C34.8077 107.992 34.9269 108.182 35.3047 108.034C35.6901 107.882 35.7966 108.083 35.5512 108.498C35.3124 108.901 34.61 109.23 33.9894 109.23C33.3688 109.23 33.1751 109.333 33.5581 109.46C34.3843 109.733 33.8697 113.518 33.0099 113.488C32.6841 113.477 32.5931 113.815 32.8073 114.24C33.1348 114.89 32.4737 116.635 30.2119 121.091C29.7169 122.067 29.3789 123.656 28.9033 127.245C28.6809 128.928 28.1957 130.427 27.8254 130.577C27.1857 130.836 26.961 132.04 26.5208 137.564C26.4157 138.884 26.0376 140.099 25.6805 140.264C25.3234 140.429 24.9179 141.498 24.7798 142.639C24.641 143.78 24.5069 144.841 24.481 144.997C24.4551 145.154 23.6677 145.865 22.7312 146.577C21.3058 147.661 21.1755 147.982 21.9293 148.549C22.424 148.921 23.1417 149.237 23.5237 149.25C24.5035 149.283 23.4153 155.985 22.2497 157.099C21.575 157.743 21.5093 158.245 22.0073 158.945C22.4006 159.497 22.4571 160.645 22.1406 161.641C21.8378 162.596 21.3138 168.671 20.9768 175.142C20.6391 181.614 20.3247 187.396 20.2778 187.993C20.2301 188.59 19.484 189.539 18.6199 190.102L17.0475 191.126L18.6651 191.342C20.1092 191.535 20.2341 191.739 19.8317 193.245C19.5833 194.173 18.8429 195.32 18.1857 195.795C17.0549 196.611 17.0649 196.659 18.3787 196.704C19.5074 196.742 19.7751 197.089 19.8106 198.556C19.9129 202.796 19.6136 205.109 18.8886 205.68C18.3138 206.132 18.3799 206.49 19.1451 207.065C20.4238 208.027 20.2997 216.992 19 217.525C18.4897 217.733 18.6341 217.868 19.4027 217.899C20.6888 217.95 20.893 219.341 19.8652 221.049C19.4979 221.659 19.6165 222.172 20.2011 222.503C20.6975 222.785 21.2354 224.319 21.3963 225.912C21.5573 227.505 21.7775 229.459 21.8858 230.254C21.9941 231.05 21.7724 231.823 21.3932 231.972C20.9646 232.141 21.0386 232.508 21.5889 232.945C22.6252 233.765 22.9967 237.272 22.0436 237.239C21.6863 237.227 21.8411 238.029 22.3877 239.021C22.9342 240.013 23.2457 241.62 23.0796 242.594C22.8613 243.873 23.0203 244.307 23.6527 244.159C24.4305 243.978 24.857 244.966 24.5128 246.15C24.4483 246.372 24.8627 247.902 25.4338 249.549C26.0048 251.196 26.5164 253.628 26.5704 254.952C26.6245 256.277 26.8572 257.8 27.0889 258.338C27.4217 259.111 26.9909 259.489 25.0103 260.159C22.9936 260.842 22.7153 261.093 23.5652 261.459C24.1444 261.709 24.9283 261.792 25.3082 261.643C25.6881 261.493 25.9897 261.627 25.9792 261.938C25.9647 262.367 26.1977 262.379 26.9235 261.989C27.6849 261.58 27.9663 261.703 28.267 262.577C28.8576 264.294 28.7362 264.494 27.3234 264.129C26.2107 263.841 26.0084 264.016 26.0167 265.254C26.0246 266.46 26.312 266.73 27.6362 266.775C30.0101 266.855 32.0514 268.591 31.4765 270.039C31.2153 270.698 31.4488 272.056 32.0056 273.111C32.7474 274.519 32.7993 275.136 32.2083 275.521C31.6172 275.906 31.7912 276.303 32.8882 277.074C34.0094 277.861 34.2787 278.504 34.0125 279.757C33.8107 280.71 33.9972 281.57 34.4557 281.796C34.8919 282.011 35.6116 282.957 36.0562 283.898C36.7371 285.341 36.7021 285.686 35.8335 286.097C35.0501 286.467 34.9906 286.724 35.5844 287.171C36.0135 287.493 36.7312 287.77 37.1803 287.785C38.3501 287.825 40.7153 291.879 41.128 294.554C41.3211 295.806 41.8818 297.271 42.3737 297.81C42.8655 298.348 43.2573 299.105 43.2442 299.492C43.2312 299.878 43.8783 301.205 44.6823 302.44C45.6109 303.866 46.1165 305.58 46.0681 307.134C46.0102 309.008 46.2339 309.58 47.0222 309.572C47.6568 309.565 48.1188 310.072 48.2243 310.89C48.319 311.621 48.6514 312.228 48.9627 312.238C49.7369 312.264 51.6125 315.933 51.5653 317.329C51.5442 317.951 51.9807 318.746 52.5353 319.094C53.6351 319.784 53.8673 321.545 52.8538 321.511C52.5082 321.499 52.0792 321.214 51.8997 320.877C51.6997 320.5 51.5426 320.577 51.4928 321.076C51.4481 321.523 52.3299 322.306 53.4529 322.816C54.5759 323.326 55.3346 324.013 55.1388 324.343C54.9436 324.673 55.0516 324.953 55.3793 324.964C55.7078 324.975 55.9167 325.779 55.8447 326.751C55.7707 327.742 56.0727 328.615 56.5319 328.739C56.9816 328.86 57.3409 329.239 57.3293 329.581C57.3177 329.923 57.762 330.488 58.3166 330.836C58.8712 331.184 59.3112 331.875 59.2944 332.371C59.2776 332.868 59.8959 333.749 60.6684 334.331C61.5735 335.012 61.9488 335.788 61.7238 336.514C61.5319 337.134 61.7128 337.752 62.125 337.887C62.6274 338.052 62.5615 338.275 61.9251 338.561C61.1227 338.922 61.1187 339.04 61.8994 339.318C62.6096 339.572 62.625 339.706 61.9636 339.898C61.3021 340.09 61.3281 340.317 62.0725 340.878C62.6061 341.28 62.8599 341.974 62.6361 342.422C62.3246 343.046 62.3904 343.089 62.9168 342.607C63.4949 342.077 63.6944 342.084 64.1812 342.65C64.4989 343.019 64.7798 343.647 64.8048 344.045C64.8297 344.443 64.8834 345.149 64.9233 345.613C64.9632 346.077 65.4592 346.473 66.025 346.492C66.7408 346.516 67.0365 347.031 66.9974 348.185C66.9635 349.188 67.3588 350.023 67.9989 350.299C68.5801 350.55 69.1162 351.098 69.1893 351.518C69.2623 351.937 69.7084 352.629 70.18 353.056C70.6523 353.482 70.8382 354.238 70.5928 354.734C70.3297 355.267 70.5664 355.899 71.1701 356.279C71.7334 356.632 72.184 357.273 72.1722 357.703C72.1597 358.134 72.7409 359.155 73.4636 359.974C74.1863 360.792 74.7666 361.84 74.753 362.302C74.7401 362.765 74.9721 363.152 75.2683 363.162C75.8059 363.18 76.0463 364.313 75.9801 366.514C75.9612 367.153 76.4264 368.075 77.014 368.563C77.6023 369.051 77.9086 369.635 77.6957 369.861C77.4821 370.087 77.8981 370.595 78.6199 370.991C79.3411 371.387 79.9231 371.961 79.9127 372.266C79.9024 372.572 80.3477 373.107 80.9023 373.455C82.2023 374.271 82.1634 375.422 80.8372 375.377C80.2715 375.358 79.816 375.126 79.8249 374.862C79.8339 374.598 79.5614 374.372 79.2199 374.361C78.8784 374.349 78.9341 374.876 79.3437 375.531C79.896 376.414 80.3181 376.6 80.9711 376.249C81.4564 375.988 81.8787 375.965 81.91 376.197C81.9413 376.428 82.0373 377.444 82.1233 378.453C82.2922 380.443 83.3304 381.716 84.8238 381.766C85.3436 381.784 85.7612 382.022 85.7519 382.296C85.7427 382.57 86.2447 383.377 86.8672 384.09C87.4905 384.803 88.0569 385.713 88.1265 386.112C88.1961 386.511 88.6219 387.012 89.0719 387.226C89.5225 387.439 89.6884 387.956 89.4415 388.373C89.1612 388.846 89.4942 389.373 90.3238 389.77C91.0568 390.121 91.6439 390.765 91.6292 391.201C91.6141 391.646 92.3494 392.152 93.3064 392.354C94.2436 392.552 94.9991 393.049 94.9853 393.459C94.9628 394.122 95.0772 394.129 96.013 393.519C96.5921 393.142 97.0738 392.602 97.0834 392.318C97.0929 392.035 97.4176 391.814 97.8043 391.827C98.2041 391.841 98.0681 391.212 97.4891 390.369C96.7576 389.304 96.6716 388.642 97.1836 388.016C97.576 387.538 97.6899 386.991 97.4375 386.801C97.1851 386.611 97.4298 386.277 97.9823 386.06C98.8534 385.717 98.8537 385.625 97.986 385.36C97.1475 385.106 97.0788 383.951 97.5602 378.224C97.876 374.467 98.4153 371.107 98.7587 370.758C99.1604 370.35 99.0513 369.963 98.4522 369.673C97.7106 369.313 97.7053 369.226 98.4275 369.244C98.9262 369.257 99.745 369 100.247 368.673C100.995 368.186 100.95 367.886 99.9972 367.003C99.0626 366.137 98.9604 365.527 99.4753 363.882C99.8264 362.758 100.133 361.676 100.156 361.478C100.179 361.28 100.661 361.134 101.227 361.153C101.793 361.172 102.263 360.965 102.272 360.693C102.281 360.42 101.83 360.057 101.27 359.886C100.06 359.516 99.9777 358.631 101.087 357.908C102.016 357.303 103.868 358.399 103.641 359.42C103.325 360.834 103.712 361.301 105.17 361.268C108.759 361.186 109.767 361.422 109.288 362.231C108.933 362.829 109.1 362.955 109.978 362.751C110.669 362.59 111.132 362.717 111.126 363.067C111.12 363.389 111.285 364.146 111.492 364.748C111.77 365.553 111.575 365.833 110.761 365.806C109.497 365.763 109.33 366.388 110.257 367.691C110.763 368.403 110.612 368.633 109.533 368.793C108.783 368.904 108.161 369.247 108.151 369.554C108.14 369.892 108.674 370.01 109.51 369.854C110.594 369.651 110.788 369.763 110.421 370.382C110.165 370.814 110.334 371.346 110.795 371.565C111.257 371.784 111.661 372.75 111.693 373.712C111.739 375.094 111.496 375.452 110.539 375.42C108.885 375.364 108.958 376.638 110.63 377.003C111.85 377.269 111.939 377.625 111.576 380.783C111.303 383.151 111.463 384.689 112.074 385.58C112.84 386.694 112.826 387.079 111.984 388.139C111.44 388.825 111.231 389.395 111.52 389.405C111.809 389.415 111.888 390.067 111.696 390.854C111.503 391.641 110.95 392.272 110.467 392.256C109.155 392.211 108.643 393.515 109.83 393.878C111.285 394.323 111.577 394.288 111.114 393.726C110.878 393.441 111.173 393.379 111.822 393.577C112.713 393.849 112.75 393.992 112.005 394.299C111.245 394.613 111.26 394.775 112.089 395.197C112.928 395.624 112.94 395.779 112.157 396.102C111.52 396.364 111.449 396.603 111.938 396.835C112.337 397.024 112.614 397.872 112.552 398.72C112.49 399.567 112.506 400.479 112.587 400.747C112.892 401.756 112.511 402.046 111.619 401.486C110.877 401.02 110.687 401.137 110.655 402.075C110.63 402.815 111.085 403.348 111.893 403.524C113.651 403.908 113.47 404.754 111.588 404.944L110.038 405.1L111.578 405.217C113.672 405.377 113.757 407.762 111.666 407.691C110.912 407.666 110.288 407.841 110.28 408.08C110.272 408.32 110.83 408.432 111.521 408.33C113.042 408.104 114.557 409.343 114.198 410.52C114.054 410.991 113.24 411.565 112.388 411.797C111.537 412.028 110.866 412.439 110.898 412.709C111.045 413.949 110.611 414.291 108.625 414.501C106.934 414.68 106.243 414.495 105.283 413.606C104.196 412.6 103.85 412.537 101.893 412.983C99.9597 413.424 99.5488 413.357 98.2587 412.386C97.4587 411.784 96.1807 411.331 95.4184 411.38C94.3844 411.445 94.2732 411.363 94.9783 411.057C95.6381 410.771 95.698 410.54 95.1758 410.292C94.7643 410.098 94.4412 409.541 94.4576 409.057C94.4919 408.044 93.2084 407.548 90.2962 407.45C89.1737 407.412 88.4172 407.208 88.6165 406.997C89.021 406.569 86.7199 404.923 85.6666 404.887C85.2936 404.875 84.9984 404.57 85.0106 404.21C85.0253 403.774 84.4665 403.612 83.3306 403.726C82.0267 403.856 81.1948 403.507 79.7769 402.236C76.2955 399.116 74.2257 397.717 73.5097 397.999C72.5412 398.38 69.4721 396.792 69.5014 395.925C69.5156 395.505 69.1146 395.326 68.487 395.472C67.7971 395.633 67.4516 395.415 67.4573 394.821C67.4708 393.406 65.8602 392.19 63.8847 392.123C62.2362 392.067 62.1515 391.975 62.9643 391.123C63.7508 390.298 63.6151 390.029 61.8438 388.896C60.7357 388.187 58.836 387.257 57.6237 386.829C55.1503 385.956 54.8748 385.354 56.6598 384.723C58.41 384.103 57.2034 383.488 54.1459 383.441C52.1177 383.41 51.5947 383.243 51.9005 382.726C52.1495 382.306 51.753 381.933 50.8487 381.735C50.0501 381.56 49.4066 381.139 49.4182 380.798C49.4317 380.397 49.9811 380.29 50.973 380.496L52.5069 380.813L50.9168 379.741C48.7496 378.281 46.7509 377.822 45.9147 378.595C45.4158 379.056 45.3295 378.948 45.5934 378.19C45.8519 377.448 45.6818 377.219 44.994 377.38C44.466 377.503 44.0429 377.347 44.0535 377.034C44.0641 376.72 42.8512 375.58 41.3583 374.499C39.8653 373.419 38.7058 372.261 38.7811 371.924C39.2785 369.701 38.8346 369.146 36.4929 369.066C34.529 369 34.2164 368.843 34.5313 368.079C34.7863 367.459 34.3409 366.887 33.1333 366.282C32.1585 365.794 31.1864 365.509 30.9731 365.647C30.4845 365.965 28.3884 364.408 27.2739 362.898C26.433 361.758 26.2953 361.466 26.1619 360.538C26.1235 360.272 25.4753 360.034 24.721 360.008C23.9407 359.982 23.3604 359.642 23.3747 359.219C23.3886 358.81 22.4887 358.076 21.3745 357.587C18.9034 356.504 18.8035 355.683 21.1026 355.358C22.051 355.225 22.8384 354.78 22.8522 354.371C22.87 353.847 22.4712 353.703 21.4998 353.885C20.4732 354.077 20.227 353.966 20.5321 353.451C21.2004 352.324 23.5664 352.235 24.4563 353.304C24.8904 353.826 25.6862 354.268 26.2238 354.286C26.762 354.304 26.9973 354.452 26.7474 354.615C26.2427 354.944 30.8981 357.777 32.0425 357.837C32.7799 357.876 34.9788 361.181 34.9444 362.2C34.934 362.507 34.4249 362.742 33.8132 362.721C32.9019 362.691 32.8502 362.819 33.5296 363.434C33.9859 363.846 34.8608 364.204 35.4744 364.228C36.4287 364.267 36.4422 364.333 35.5667 364.686C35.0036 364.914 34.7765 365.275 35.0617 365.49C35.7064 365.975 36.9721 364.722 36.463 364.103C36.1195 363.686 37.4501 362.869 38.445 362.885C38.6844 362.89 39.0258 363.33 39.2048 363.864C39.3837 364.397 40.0943 365.006 40.784 365.216C42.7327 365.811 44.4102 367.545 44.1124 368.657C43.9042 369.435 44.1306 369.622 45.1089 369.477C45.8051 369.373 46.3817 369.092 46.3898 368.853C46.3979 368.613 47.1822 368.807 48.1327 369.283C49.202 369.818 49.5707 370.262 49.0997 370.447C47.7054 370.996 49.0953 372.322 51.3003 372.547C53.2645 372.747 53.4798 372.936 53.6178 374.578C53.7576 376.25 53.8805 376.351 55.2214 375.899C56.4728 375.478 56.6064 375.524 56.1885 376.229C55.8179 376.855 55.9955 377.005 56.9414 376.865C58.4669 376.638 60.0746 377.838 59.5133 378.785C59.2439 379.24 59.7079 379.668 60.8427 380.012C63.0301 380.675 64.2216 380.277 63.0965 379.26C62.6395 378.847 62.2444 377.825 62.2184 376.988C62.1419 374.521 62.0396 374.26 61.1344 374.23C60.3074 374.202 58.6717 371.07 58.7212 369.609C58.7343 369.222 58.3032 368.714 57.7639 368.481C57.1949 368.235 56.6967 367.091 56.5791 365.758C56.4674 364.494 56.1933 363.322 55.9704 363.154C55.7482 362.987 55.8626 362.487 56.2256 362.044C56.782 361.364 56.6213 361.264 55.1934 361.407C54.1726 361.508 53.5085 361.351 53.5201 361.011C53.5306 360.7 53.8432 360.589 54.2148 360.766C56.0033 361.613 54.6786 359.679 51.9017 357.386C51.0863 356.713 49.7048 353.231 49.8433 352.199C50.1601 349.837 49.7519 348.347 48.7796 348.314C48.2015 348.294 47.5505 347.893 47.3324 347.423C47.1135 346.953 46.5585 346.23 46.0981 345.818C45.6384 345.405 45.1837 344.416 45.0885 343.619C44.9933 342.822 44.3828 341.427 43.7318 340.52C43.0808 339.613 42.7482 338.464 42.9929 337.969C43.2412 337.467 43.1144 337.057 42.7064 337.043C42.3039 337.03 41.993 336.478 42.0154 335.817C42.0377 335.156 41.7289 334.605 41.3298 334.591C40.9307 334.578 40.803 334.356 41.0465 334.097C41.2901 333.839 40.8743 332.98 40.1219 332.188C39.3695 331.395 38.7624 330.51 38.7722 330.221C38.782 329.931 38.4814 329.684 38.1043 329.671C37.7271 329.659 37.4354 329.151 37.456 328.543C37.4765 327.935 37.2253 327.223 36.8971 326.96C36.5696 326.698 35.5742 324.628 34.6851 322.359C33.4035 319.089 33.2443 318.093 33.9155 317.55C34.5903 317.004 34.5747 316.937 33.8389 317.218C32.7462 317.636 30.4256 315.98 30.8788 315.105C31.0433 314.786 30.5606 313.774 29.8056 312.857C29.0499 311.94 28.4523 310.59 28.4771 309.858C28.5019 309.125 28.0729 308.27 27.5247 307.958C26.9757 307.646 26.428 306.954 26.3066 306.42C26.1853 305.887 25.9236 305.12 25.7251 304.717C24.5073 302.241 24.1291 300.757 24.4926 299.875C24.7536 299.243 24.4857 298.638 23.7681 298.239C23.1387 297.89 22.6253 296.914 22.6192 296.057C22.6137 295.206 22.3143 294.498 21.9543 294.486C21.5943 294.474 21.4742 294.169 21.6882 293.809C21.9016 293.448 21.4642 292.659 20.7157 292.055C19.7414 291.269 19.4779 290.575 19.7893 289.609C20.0793 288.709 19.9164 288.167 19.2994 287.978C18.7905 287.822 17.9167 286.096 17.3574 284.14C16.7988 282.185 15.9008 280.077 15.3623 279.456C14.8238 278.835 14.5519 278.149 14.7576 277.93C14.9634 277.713 14.6802 276.852 14.1276 276.017C13.144 274.531 13.254 271.787 14.3664 270.055C14.7911 269.393 14.5437 269.219 13.1078 269.17C11.9757 269.132 11.3291 268.845 11.3445 268.389C11.3579 267.992 11.1104 267.659 10.7943 267.649C10.4781 267.638 10.2042 266.846 10.1852 265.888C10.1661 264.931 9.82428 263.852 9.42461 263.491C8.59329 262.739 8.02606 260.269 8.21492 258.217C8.28563 257.446 7.99268 256.649 7.56431 256.446C7.13526 256.243 6.68738 254.912 6.5687 253.489C6.25415 249.718 6.29105 249.094 6.90109 247.884C7.33383 247.025 7.16465 246.729 6.1077 246.498C4.73115 246.198 4.72208 246.161 4.41665 240.011C4.29353 237.522 3.97662 236.317 3.31318 235.818C3.05677 235.625 2.88112 234.466 2.92256 233.241C2.96398 232.016 2.71407 230.799 2.36669 230.536C1.84863 230.143 1.66786 227.086 1.92734 223.088C1.9531 222.692 1.6747 221.384 1.30899 220.181C0.320508 216.932 0.190287 214.206 0.991969 213.561C1.38999 213.241 1.47313 212.61 1.18062 212.124C0.483884 210.966 0.556001 201.874 1.2616 201.898C1.56743 201.908 1.40951 201.3 0.910514 200.546C0.34948 199.699 0.10995 197.993 0.281947 196.074C0.570344 192.866 1.22008 191.578 2.29507 192.088C2.63628 192.249 2.74359 192.04 2.53324 191.622C2.32221 191.204 1.83641 190.852 1.45379 190.839C1.05196 190.825 1.12879 190.523 1.6352 190.124C2.34827 189.561 2.32267 189.425 1.4957 189.397C0.659812 189.369 0.544949 188.665 0.851369 185.452C1.05664 183.3 1.37487 181.443 1.5581 181.323C1.742 181.203 1.65925 180.747 1.37544 180.31C1.09163 179.871 1.08063 178.756 1.35155 177.83ZM12.5398 349.133C12.7196 348.808 13.8429 348.6 15.0357 348.671C16.4943 348.758 16.753 348.863 15.826 348.991C15.0673 349.095 14.0461 349.391 13.5562 349.648C12.5162 350.194 12.0762 349.971 12.5398 349.133ZM18.594 216.436C18.9712 216.448 19.2875 216.23 19.297 215.95C19.3064 215.67 19.0011 215.564 18.6184 215.715C18.2358 215.865 17.9194 216.084 17.9155 216.201C17.9115 216.317 18.2169 216.423 18.594 216.436ZM15.889 351.531C17.2317 351.577 18.7972 352.48 18.773 353.197C18.7653 353.423 18.3794 353.427 17.9146 353.204C17.4505 352.982 16.6343 352.779 16.101 352.753C14.6143 352.684 14.4058 351.481 15.889 351.531ZM24.6166 131.837C24.8497 131.685 24.8884 131.271 24.7019 130.918C24.4962 130.527 24.3298 130.635 24.2779 131.194C24.2313 131.7 24.3836 131.989 24.6166 131.837ZM18.1809 350.406C18.5636 350.255 18.8652 350.469 18.8513 350.881C18.8374 351.293 18.5174 351.62 18.1402 351.607C17.7631 351.594 17.4614 351.381 17.4698 351.132C17.4782 350.883 17.7982 350.557 18.1809 350.406ZM27.9434 123.901C28.2986 123.913 28.596 123.707 28.6049 123.442C28.6139 123.178 28.1398 122.946 27.5522 122.926C26.9645 122.906 26.6664 123.112 26.8906 123.384C27.1149 123.657 27.5882 123.889 27.9434 123.901ZM29.0344 99.4023C29.2011 99.408 29.5348 99.2028 29.7769 98.9464C30.019 98.6899 29.8898 98.4691 29.4907 98.4556C29.0916 98.4421 28.7572 98.6473 28.7483 98.9116C28.7394 99.1759 28.8678 99.3967 29.0344 99.4023ZM35.7986 98.5064C36.2749 98.3892 35.8925 98.2671 34.9497 98.2352C34.0068 98.2033 33.6178 98.2993 34.0843 98.4484C34.5516 98.5979 35.323 98.624 35.7986 98.5064ZM41.3025 93.0821C41.6796 93.0948 41.9962 92.7264 42.0064 92.264C42.0218 91.5448 41.9236 91.5241 41.335 92.121C40.4678 92.9995 40.4659 93.0538 41.3025 93.0821ZM38.9058 311.479C40.0472 310.735 39.0186 310.254 37.8198 310.971C37.2536 311.31 37.0937 311.675 37.4641 311.783C37.8339 311.892 38.4825 311.755 38.9058 311.479ZM45.7175 84.3312C46.0891 84.5074 46.4009 84.4222 46.4104 84.1425C46.4199 83.8628 46.119 83.6232 45.7419 83.6104C45.3648 83.5976 45.053 83.6824 45.049 83.7991C45.0451 83.9159 45.3459 84.1551 45.7175 84.3312ZM41.2934 367.304C41.8591 367.324 42.3293 367.123 42.3382 366.859C42.3472 366.594 41.8916 366.362 41.3259 366.343C40.7602 366.324 40.2901 366.525 40.2811 366.789C40.2722 367.053 40.7277 367.285 41.2934 367.304ZM65.7693 384.49C66.1464 384.502 66.4582 384.418 66.4621 384.301C66.4661 384.184 66.1653 383.945 65.7936 383.769C65.422 383.593 65.1102 383.678 65.1008 383.957C65.0913 384.237 65.3921 384.477 65.7693 384.49ZM100.479 383.258C101.045 383.277 101.515 383.077 101.524 382.813C101.533 382.548 101.077 382.316 100.512 382.297C99.9459 382.278 99.4757 382.479 99.4668 382.743C99.4578 383.007 99.9134 383.239 100.479 383.258ZM114.198 17.13C114.364 17.1357 114.698 16.9305 114.94 16.674C115.182 16.4176 115.053 16.1968 114.654 16.1833C114.255 16.1698 113.92 16.3749 113.911 16.6392C113.902 16.9035 114.031 17.1244 114.198 17.13ZM102.439 386.211C103.004 386.23 103.475 386.03 103.484 385.765C103.492 385.501 104.014 385.302 104.643 385.323C105.271 385.345 105.598 385.222 105.37 385.05C104.768 384.596 101.445 385.148 101.426 385.705C101.417 385.964 101.873 386.192 102.439 386.211ZM106.093 369.034C106.977 368.097 106.289 367.461 105.131 368.146C104.518 368.507 104.405 368.889 104.816 369.209C105.237 369.536 105.675 369.476 106.093 369.034ZM104.849 373.253C105.823 373.864 108.014 373.607 108.038 372.878C108.046 372.643 107.59 372.434 107.024 372.415C106.459 372.395 106.008 372.029 106.022 371.6C106.044 370.962 105.859 370.922 105 371.384C103.7 372.082 103.666 372.509 104.849 373.253ZM104.402 404.619C105.09 404.167 105.013 404.109 104.027 404.337C103.345 404.494 102.955 404.75 103.161 404.905C103.367 405.06 103.925 404.932 104.402 404.619ZM106.787 364.214C108.405 364.256 108.504 364.187 107.484 363.73C106.83 363.437 105.985 363.319 105.605 363.469C104.441 363.927 104.814 364.162 106.787 364.214ZM107.85 379.659C108.626 379.685 109.078 379.484 108.854 379.212C108.63 378.94 108.002 378.702 107.458 378.683C106.915 378.665 106.463 378.866 106.454 379.131C106.445 379.395 107.073 379.633 107.85 379.659ZM108.464 390.745C109.03 390.764 109.503 390.462 109.516 390.074C109.531 389.644 109.135 389.463 108.502 389.61C107.931 389.743 107.458 390.045 107.45 390.281C107.442 390.517 107.898 390.726 108.464 390.745ZM124.833 8.82053C125.419 8.50551 125.761 8.14423 125.593 8.01731C125.128 7.6682 123.804 8.30127 123.785 8.88177C123.774 9.20085 124.169 9.17764 124.833 8.82053ZM130.115 13.3387C130.282 13.3443 130.616 13.1391 130.858 12.8827C131.1 12.6263 130.971 12.4054 130.572 12.3919C130.172 12.3784 129.838 12.5836 129.829 12.8479C129.82 13.1122 129.949 13.333 130.115 13.3387Z" fill="white"/>
</svg>
