<svg width="22" height="21" viewBox="0 0 22 21" fill="none" xmlns="http://www.w3.org/2000/svg">
<path d="M9.41555 6.94529L-0.000366211 5.71484V17.2081C0.000778842 18.0974 0.387451 18.9499 1.07483 19.5787C1.76221 20.2075 2.69417 20.5612 3.66627 20.5623H6.43824L9.41555 6.94529Z" fill="#553D67"/>
<path fill-rule="evenodd" clip-rule="evenodd" d="M9.50934 13.3624L7.93518 20.5628H15.7151L15.9539 13.3624H9.50934ZM9.82221 11.9313H21.9506V13.3624H17.519L17.2803 20.5628H18.3338C19.3059 20.5617 20.2378 20.208 20.9252 19.5792C21.6126 18.9504 21.9992 18.0978 22.0004 17.2086V8.59011L10.8706 7.13574L9.82221 11.9313Z" fill="white"/>
<path d="M21.9994 7.23486V3.79167C21.9983 2.90241 21.6116 2.04987 20.9242 1.42107C20.2369 0.792268 19.3049 0.438547 18.3328 0.4375H3.66627C2.69417 0.438547 1.76221 0.792268 1.07483 1.42107C0.387451 2.04987 0.000778842 2.90241 -0.000366211 3.79167V4.36L21.9994 7.23486Z" fill="#242582"/>
</svg>
