<svg width="1932" height="1072" viewBox="0 0 1932 1072" fill="none" xmlns="http://www.w3.org/2000/svg">
<path fill-rule="evenodd" clip-rule="evenodd" d="M1 1H303.497L266.905 126.816L1 260.061V1Z" stroke="#EDECEC" stroke-opacity="0.78"/>
<path fill-rule="evenodd" clip-rule="evenodd" d="M1 260.061L266.905 126.815L452.992 467.406L1 825.62V260.061Z" stroke="#EDECEC" stroke-opacity="0.78"/>
<path fill-rule="evenodd" clip-rule="evenodd" d="M763.626 1071L693.492 477.753L865.131 309.209L1156.9 486.488L1280.54 1071H763.626Z" stroke="#EDECEC" stroke-opacity="0.78"/>
<path fill-rule="evenodd" clip-rule="evenodd" d="M1 1071V825.62L452.992 467.406L693.492 477.753L763.626 1071H1Z" stroke="#EDECEC" stroke-opacity="0.78"/>
<path fill-rule="evenodd" clip-rule="evenodd" d="M1156.9 486.488L865.131 309.209L876.569 1H1327.33L1484.9 320.95L1156.9 486.488Z" stroke="#EDECEC" stroke-opacity="0.78"/>
<path fill-rule="evenodd" clip-rule="evenodd" d="M1931 1V438.172L1484.9 320.95L1327.33 1H1931Z" stroke="#EDECEC" stroke-opacity="0.78"/>
<path fill-rule="evenodd" clip-rule="evenodd" d="M1931 1071H1280.54L1156.9 486.487L1484.9 320.95L1931 438.172V1071Z" stroke="#EDECEC" stroke-opacity="0.78"/>
<path fill-rule="evenodd" clip-rule="evenodd" d="M876.57 1L865.132 309.209L693.493 477.753L452.993 467.406L266.906 126.816L303.498 1H876.57Z" stroke="#EDECEC" stroke-opacity="0.78"/>
</svg>
