<svg width="32" height="30" viewBox="0 0 32 30" fill="none" xmlns="http://www.w3.org/2000/svg">
<path d="M31.7455 15.345C31.7455 14.1363 31.6384 13.2543 31.4064 12.3396H16.3223V17.7951H25.1763C24.9979 19.1508 24.0339 21.1926 21.8917 22.5645L21.8617 22.7472L26.631 26.1279L26.9615 26.1581C29.9961 23.5936 31.7455 19.8205 31.7455 15.345" fill="#4285F4"/>
<path d="M16.323 29.7191C20.6607 29.7191 24.3023 28.4123 26.9622 26.1583L21.8924 22.5648C20.5358 23.4305 18.7149 24.0348 16.323 24.0348C12.0744 24.0348 8.46857 21.4705 7.18317 17.926L6.99476 17.9407L2.03556 21.4525L1.9707 21.6174C4.61263 26.4195 10.0393 29.7191 16.323 29.7191Z" fill="#34A853"/>
<path d="M7.18198 17.9258C6.84282 17.0111 6.64654 16.031 6.64654 15.0184C6.64654 14.0056 6.84282 13.0256 7.16414 12.1109L7.15516 11.9161L2.13381 8.3479L1.96952 8.4194C0.880652 10.4122 0.255859 12.6499 0.255859 15.0184C0.255859 17.3868 0.880652 19.6244 1.96952 21.6172L7.18198 17.9258" fill="#FBBC05"/>
<path d="M16.323 6.00203C19.3397 6.00203 21.3747 7.19439 22.5351 8.19083L27.0692 4.14C24.2845 1.77159 20.6607 0.317871 16.323 0.317871C10.0393 0.317871 4.61263 3.61729 1.9707 8.41942L7.16533 12.1109C8.46857 8.56648 12.0744 6.00203 16.323 6.00203" fill="#EB4335"/>
</svg>
