<svg width="98" height="62" viewBox="0 0 98 62" fill="none" xmlns="http://www.w3.org/2000/svg">
<path d="M7.884 36V14.148H0.576V9.36H20.556V14.148H13.212V36H7.884ZM22.7729 36V8.568H28.1009V18.648C28.7969 18.072 29.6969 17.544 30.8009 17.064C31.9289 16.584 33.0809 16.344 34.2569 16.344C35.7209 16.344 36.8849 16.632 37.7489 17.208C38.6129 17.784 39.2369 18.588 39.6209 19.62C40.0049 20.652 40.1969 21.852 40.1969 23.22V36H34.8689V23.904C34.8689 23.28 34.7489 22.764 34.5089 22.356C34.2689 21.948 33.9449 21.648 33.5369 21.456C33.1289 21.24 32.6489 21.132 32.0969 21.132C31.5929 21.132 31.1009 21.204 30.6209 21.348C30.1649 21.468 29.7209 21.636 29.2889 21.852C28.8809 22.068 28.4849 22.308 28.1009 22.572V36H22.7729ZM51.9111 36.18C49.7751 36.18 48.0711 35.904 46.7991 35.352C45.5271 34.776 44.6031 33.768 44.0271 32.328C43.4751 30.888 43.1991 28.896 43.1991 26.352C43.1991 23.736 43.4631 21.708 43.9911 20.268C44.5191 18.828 45.4071 17.82 46.6551 17.244C47.9031 16.668 49.5951 16.38 51.7311 16.38C53.6511 16.38 55.1871 16.572 56.3391 16.956C57.4911 17.34 58.3191 18.012 58.8231 18.972C59.3511 19.932 59.6151 21.288 59.6151 23.04C59.6151 24.336 59.3511 25.368 58.8231 26.136C58.3191 26.88 57.5991 27.42 56.6631 27.756C55.7271 28.068 54.6231 28.224 53.3511 28.224H48.4911C48.5391 29.208 48.6831 30 48.9231 30.6C49.1871 31.176 49.6551 31.596 50.3271 31.86C51.0231 32.1 52.0191 32.22 53.3151 32.22H58.9671V35.352C58.0311 35.544 56.9991 35.736 55.8711 35.928C54.7671 36.096 53.4471 36.18 51.9111 36.18ZM48.4191 25.056H52.8111C53.5311 25.056 54.0591 24.912 54.3951 24.624C54.7311 24.336 54.8991 23.82 54.8991 23.076C54.8991 22.38 54.7911 21.828 54.5751 21.42C54.3591 20.988 54.0231 20.688 53.5671 20.52C53.1111 20.328 52.4991 20.232 51.7311 20.232C50.9151 20.232 50.2671 20.376 49.7871 20.664C49.3071 20.928 48.9591 21.408 48.7431 22.104C48.5271 22.8 48.4191 23.784 48.4191 25.056ZM2.052 61V41.668H6.444L7.38 43.648C8.1 43.048 9 42.52 10.08 42.064C11.184 41.584 12.312 41.344 13.464 41.344C15.048 41.344 16.272 41.656 17.136 42.28C18 42.904 18.6 43.744 18.936 44.8C19.296 45.832 19.476 46.984 19.476 48.256V61H14.148V48.94C14.148 48.316 14.028 47.8 13.788 47.392C13.572 46.984 13.26 46.672 12.852 46.456C12.444 46.24 11.952 46.132 11.376 46.132C10.872 46.132 10.38 46.192 9.9 46.312C9.444 46.432 9 46.6 8.568 46.816C8.16 47.032 7.764 47.284 7.38 47.572V61H2.052ZM31.1902 61.18C29.0542 61.18 27.3502 60.904 26.0782 60.352C24.8062 59.776 23.8822 58.768 23.3062 57.328C22.7542 55.888 22.4782 53.896 22.4782 51.352C22.4782 48.736 22.7422 46.708 23.2702 45.268C23.7982 43.828 24.6862 42.82 25.9342 42.244C27.1822 41.668 28.8742 41.38 31.0102 41.38C32.9302 41.38 34.4662 41.572 35.6182 41.956C36.7702 42.34 37.5982 43.012 38.1022 43.972C38.6302 44.932 38.8942 46.288 38.8942 48.04C38.8942 49.336 38.6302 50.368 38.1022 51.136C37.5982 51.88 36.8782 52.42 35.9422 52.756C35.0062 53.068 33.9022 53.224 32.6302 53.224H27.7702C27.8182 54.208 27.9622 55 28.2022 55.6C28.4662 56.176 28.9342 56.596 29.6062 56.86C30.3022 57.1 31.2982 57.22 32.5942 57.22H38.2462V60.352C37.3102 60.544 36.2782 60.736 35.1502 60.928C34.0462 61.096 32.7262 61.18 31.1902 61.18ZM27.6982 50.056H32.0902C32.8102 50.056 33.3382 49.912 33.6742 49.624C34.0102 49.336 34.1782 48.82 34.1782 48.076C34.1782 47.38 34.0702 46.828 33.8542 46.42C33.6382 45.988 33.3022 45.688 32.8462 45.52C32.3902 45.328 31.7782 45.232 31.0102 45.232C30.1942 45.232 29.5462 45.376 29.0662 45.664C28.5862 45.928 28.2382 46.408 28.0222 47.104C27.8062 47.8 27.6982 48.784 27.6982 50.056ZM50.1181 61.18C47.9821 61.18 46.2781 60.904 45.0061 60.352C43.7341 59.776 42.8101 58.768 42.2341 57.328C41.6821 55.888 41.4061 53.896 41.4061 51.352C41.4061 48.736 41.6701 46.708 42.1981 45.268C42.7261 43.828 43.6141 42.82 44.8621 42.244C46.1101 41.668 47.8021 41.38 49.9381 41.38C51.8581 41.38 53.3941 41.572 54.5461 41.956C55.6981 42.34 56.5261 43.012 57.0301 43.972C57.5581 44.932 57.8221 46.288 57.8221 48.04C57.8221 49.336 57.5581 50.368 57.0301 51.136C56.5261 51.88 55.8061 52.42 54.8701 52.756C53.9341 53.068 52.8301 53.224 51.5581 53.224H46.6981C46.7461 54.208 46.8901 55 47.1301 55.6C47.3941 56.176 47.8621 56.596 48.5341 56.86C49.2301 57.1 50.2261 57.22 51.5221 57.22H57.1741V60.352C56.2381 60.544 55.2061 60.736 54.0781 60.928C52.9741 61.096 51.6541 61.18 50.1181 61.18ZM46.6261 50.056H51.0181C51.7381 50.056 52.2661 49.912 52.6021 49.624C52.9381 49.336 53.1061 48.82 53.1061 48.076C53.1061 47.38 52.9981 46.828 52.7821 46.42C52.5661 45.988 52.2301 45.688 51.7741 45.52C51.3181 45.328 50.7061 45.232 49.9381 45.232C49.1221 45.232 48.4741 45.376 47.9941 45.664C47.5141 45.928 47.1661 46.408 46.9501 47.104C46.7341 47.8 46.6261 48.784 46.6261 50.056ZM67.246 61.216C65.734 61.216 64.462 60.904 63.43 60.28C62.398 59.632 61.618 58.6 61.09 57.184C60.586 55.744 60.334 53.86 60.334 51.532C60.334 49.132 60.55 47.188 60.982 45.7C61.438 44.212 62.194 43.12 63.25 42.424C64.306 41.728 65.758 41.38 67.606 41.38C68.494 41.38 69.37 41.476 70.234 41.668C71.098 41.836 71.866 42.04 72.538 42.28V33.532H77.902V61H73.402L72.538 59.164C72.13 59.548 71.626 59.896 71.026 60.208C70.45 60.52 69.838 60.772 69.19 60.964C68.542 61.132 67.894 61.216 67.246 61.216ZM69.118 56.932C69.838 56.932 70.486 56.812 71.062 56.572C71.662 56.332 72.154 56.092 72.538 55.852V46.132C72.058 45.964 71.554 45.796 71.026 45.628C70.498 45.46 69.934 45.376 69.334 45.376C68.446 45.376 67.726 45.532 67.174 45.844C66.646 46.156 66.262 46.744 66.022 47.608C65.782 48.448 65.662 49.672 65.662 51.28C65.662 52.768 65.77 53.932 65.986 54.772C66.226 55.588 66.598 56.152 67.102 56.464C67.606 56.776 68.278 56.932 69.118 56.932Z" fill="white"/>
<path d="M64 33.3657L70.0891 5L76.2609 18.0062L91.6077 18.2955L64 33.3657Z" fill="#FF7101" stroke="#EFEFEF" stroke-width="3" stroke-miterlimit="10"/>
</svg>
