<svg width="24" height="29" viewBox="0 0 24 29" fill="none" xmlns="http://www.w3.org/2000/svg">
<path d="M20.4963 11.3767H3.08498C2.01654 11.3767 1.15039 12.1692 1.15039 13.1469V25.5381C1.15039 26.5157 2.01654 27.3082 3.08498 27.3082H20.4963C21.5647 27.3082 22.4309 26.5157 22.4309 25.5381V13.1469C22.4309 12.1692 21.5647 11.3767 20.4963 11.3767Z" stroke="#A0A3BD" stroke-width="1.5" stroke-linecap="round" stroke-linejoin="round"/>
<path d="M5.01758 11.3765V6.95109C5.01758 5.30792 5.73096 3.73204 7.00078 2.57014C8.2706 1.40824 9.99284 0.755493 11.7886 0.755493C13.5844 0.755493 15.3067 1.40824 16.5765 2.57014C17.8463 3.73204 18.5597 5.30792 18.5597 6.95109V11.3765" stroke="#A0A3BD" stroke-width="1.5" stroke-linecap="round" stroke-linejoin="round"/>
</svg>
