<svg width="286" height="177" viewBox="0 0 286 177" fill="none" xmlns="http://www.w3.org/2000/svg">
<path d="M20.256 104V47.648H1.536V32.768H55.488V47.648H36.768V104H20.256ZM61.8 104V30.848H78.408V57.44C80.008 55.968 82.248 54.624 85.128 53.408C88.008 52.128 90.92 51.488 93.864 51.488C97.896 51.488 101.064 52.256 103.368 53.792C105.672 55.328 107.304 57.504 108.264 60.32C109.288 63.136 109.8 66.4 109.8 70.112V104H93.192V72.32C93.192 70.912 92.904 69.76 92.328 68.864C91.816 67.968 91.08 67.328 90.12 66.944C89.224 66.56 88.232 66.368 87.144 66.368C86.056 66.368 84.968 66.528 83.88 66.848C82.856 67.168 81.864 67.584 80.904 68.096C79.944 68.544 79.112 69.088 78.408 69.728V104H61.8ZM141.639 104.48C135.879 104.48 131.239 103.744 127.719 102.272C124.199 100.736 121.639 98.08 120.039 94.304C118.503 90.464 117.735 85.12 117.735 78.272C117.735 71.232 118.439 65.792 119.847 61.952C121.319 58.048 123.751 55.328 127.143 53.792C130.535 52.256 135.143 51.488 140.967 51.488C146.279 51.488 150.503 52 153.639 53.024C156.775 54.048 159.015 55.872 160.359 58.496C161.767 61.12 162.471 64.832 162.471 69.632C162.471 73.216 161.767 76.064 160.359 78.176C158.951 80.288 156.935 81.792 154.311 82.688C151.751 83.52 148.711 83.936 145.191 83.936H134.151C134.343 85.984 134.727 87.616 135.303 88.832C135.943 90.048 137.095 90.912 138.759 91.424C140.423 91.936 142.887 92.192 146.151 92.192H160.647V101.888C158.279 102.464 155.559 103.04 152.487 103.616C149.479 104.192 145.863 104.48 141.639 104.48ZM133.959 74.144H143.367C144.967 74.144 146.119 73.824 146.823 73.184C147.527 72.544 147.879 71.392 147.879 69.728C147.879 68.192 147.655 66.976 147.207 66.08C146.759 65.12 146.023 64.448 144.999 64.064C143.975 63.616 142.631 63.392 140.967 63.392C139.303 63.392 137.959 63.712 136.935 64.352C135.911 64.928 135.143 66.016 134.631 67.616C134.183 69.152 133.959 71.328 133.959 74.144ZM4.8 174V122.352H18.528L21.408 127.44C23.136 125.904 25.376 124.528 28.128 123.312C30.944 122.096 33.824 121.488 36.768 121.488C41.12 121.488 44.448 122.32 46.752 123.984C49.056 125.648 50.624 127.92 51.456 130.8C52.352 133.68 52.8 136.848 52.8 140.304V174H36.192V142.512C36.192 141.04 35.936 139.856 35.424 138.96C34.912 138.064 34.208 137.424 33.312 137.04C32.416 136.592 31.36 136.368 30.144 136.368C29.056 136.368 27.968 136.528 26.88 136.848C25.792 137.104 24.8 137.488 23.904 138C23.008 138.512 22.176 139.088 21.408 139.728V174H4.8ZM84.639 174.48C78.879 174.48 74.239 173.744 70.719 172.272C67.199 170.736 64.639 168.08 63.039 164.304C61.503 160.464 60.735 155.12 60.735 148.272C60.735 141.232 61.439 135.792 62.847 131.952C64.319 128.048 66.751 125.328 70.143 123.792C73.535 122.256 78.143 121.488 83.967 121.488C89.279 121.488 93.503 122 96.639 123.024C99.775 124.048 102.015 125.872 103.359 128.496C104.767 131.12 105.471 134.832 105.471 139.632C105.471 143.216 104.767 146.064 103.359 148.176C101.951 150.288 99.935 151.792 97.311 152.688C94.751 153.52 91.711 153.936 88.191 153.936H77.151C77.343 155.984 77.727 157.616 78.303 158.832C78.943 160.048 80.095 160.912 81.759 161.424C83.423 161.936 85.887 162.192 89.151 162.192H103.647V171.888C101.279 172.464 98.559 173.04 95.487 173.616C92.479 174.192 88.863 174.48 84.639 174.48ZM76.959 144.144H86.367C87.967 144.144 89.119 143.824 89.823 143.184C90.527 142.544 90.879 141.392 90.879 139.728C90.879 138.192 90.655 136.976 90.207 136.08C89.759 135.12 89.023 134.448 87.999 134.064C86.975 133.616 85.631 133.392 83.967 133.392C82.303 133.392 80.959 133.712 79.935 134.352C78.911 134.928 78.143 136.016 77.631 137.616C77.183 139.152 76.959 141.328 76.959 144.144ZM136.108 174.48C130.348 174.48 125.708 173.744 122.188 172.272C118.668 170.736 116.108 168.08 114.508 164.304C112.972 160.464 112.204 155.12 112.204 148.272C112.204 141.232 112.908 135.792 114.316 131.952C115.788 128.048 118.22 125.328 121.612 123.792C125.004 122.256 129.612 121.488 135.436 121.488C140.748 121.488 144.972 122 148.108 123.024C151.244 124.048 153.484 125.872 154.828 128.496C156.236 131.12 156.94 134.832 156.94 139.632C156.94 143.216 156.236 146.064 154.828 148.176C153.42 150.288 151.404 151.792 148.78 152.688C146.22 153.52 143.18 153.936 139.66 153.936H128.62C128.812 155.984 129.196 157.616 129.772 158.832C130.412 160.048 131.564 160.912 133.228 161.424C134.892 161.936 137.356 162.192 140.62 162.192H155.116V171.888C152.748 172.464 150.028 173.04 146.956 173.616C143.948 174.192 140.332 174.48 136.108 174.48ZM128.428 144.144H137.836C139.436 144.144 140.588 143.824 141.292 143.184C141.996 142.544 142.348 141.392 142.348 139.728C142.348 138.192 142.124 136.976 141.676 136.08C141.228 135.12 140.492 134.448 139.468 134.064C138.444 133.616 137.1 133.392 135.436 133.392C133.772 133.392 132.428 133.712 131.404 134.352C130.38 134.928 129.612 136.016 129.1 137.616C128.652 139.152 128.428 141.328 128.428 144.144ZM182.105 174.576C178.137 174.576 174.777 173.744 172.025 172.08C169.273 170.416 167.193 167.696 165.785 163.92C164.377 160.144 163.673 155.088 163.673 148.752C163.673 142.352 164.249 137.168 165.401 133.2C166.553 129.232 168.537 126.288 171.353 124.368C174.169 122.448 178.073 121.488 183.065 121.488C185.241 121.488 187.417 121.712 189.593 122.16C191.769 122.608 193.689 123.12 195.353 123.696V100.752H211.961V174H197.945L195.353 169.2C194.201 170.224 192.889 171.152 191.417 171.984C190.009 172.816 188.505 173.456 186.905 173.904C185.369 174.352 183.769 174.576 182.105 174.576ZM188.057 161.328C189.657 161.328 191.065 161.072 192.281 160.56C193.561 160.048 194.585 159.504 195.353 158.928V135.696C194.457 135.312 193.401 134.928 192.185 134.544C191.033 134.096 189.849 133.872 188.633 133.872C186.585 133.872 184.953 134.224 183.737 134.928C182.521 135.632 181.625 137.008 181.049 139.056C180.537 141.04 180.281 143.984 180.281 147.888C180.281 151.664 180.505 154.512 180.953 156.432C181.465 158.352 182.297 159.664 183.449 160.368C184.665 161.008 186.201 161.328 188.057 161.328Z" fill="white"/>
<path d="M188.036 79.0038L269.99 53.9264L209.998 45.2086L170.63 10.7122L188.036 79.0038Z" fill="#FF7101" stroke="#EFEFEF" stroke-width="3" stroke-miterlimit="10"/>
</svg>
