<svg width="15" height="14" viewBox="0 0 15 14" fill="none" xmlns="http://www.w3.org/2000/svg">
<path d="M2.39562 2.33317H5.20184L6.10634 4.44369L4.65329 5.34781C4.47942 5.456 4.37498 5.63813 4.37498 5.83317C4.37657 5.88779 4.37498 5.83375 4.37498 5.83375L4.37498 5.83437L4.37499 5.83567L4.37501 5.83861L4.3751 5.84581C4.37519 5.85119 4.37535 5.85772 4.37561 5.86537C4.37614 5.88066 4.3771 5.90043 4.37881 5.92438C4.38223 5.97227 4.38867 6.03701 4.40079 6.11619C4.42502 6.27444 4.47203 6.49123 4.5633 6.7468C4.74658 7.25996 5.10669 7.92439 5.80804 8.57898C6.50939 9.23358 7.22127 9.56968 7.77109 9.74074C8.04491 9.82592 8.27719 9.8698 8.44675 9.89241C8.53158 9.90372 8.60094 9.90974 8.65225 9.91293C8.67792 9.91453 8.6991 9.91542 8.71549 9.91592C8.72368 9.91616 8.73068 9.91631 8.73644 9.91639L8.74415 9.91648L8.7473 9.9165L8.7487 9.9165H8.74935C8.74935 9.9165 8.81913 9.91293 8.74998 9.9165C8.98671 9.9165 9.20313 9.79167 9.309 9.59404L9.72756 8.81273L12.5 9.24399V11.7639C11.1805 11.942 7.61711 12.1175 4.81692 9.50402C2.01674 6.89052 2.20481 3.56464 2.39562 2.33317ZM5.67101 6.11672L6.79972 5.41441C7.29155 5.10838 7.48647 4.52264 7.26694 4.0104L6.36243 1.89988C6.1726 1.45695 5.71297 1.1665 5.20184 1.1665H2.36297C1.79515 1.1665 1.26066 1.53468 1.16745 2.1097C0.955376 3.41788 0.666722 7.28042 3.93304 10.329C7.19936 13.3775 11.3378 13.1081 12.7394 12.9102C13.3555 12.8232 13.75 12.3243 13.75 11.7944V9.24399C13.75 8.67368 13.3082 8.18696 12.7055 8.0932L9.93306 7.66194C9.39177 7.57774 8.85494 7.83288 8.60953 8.29098L8.39297 8.69522C8.3249 8.67963 8.24892 8.65962 8.16637 8.63394C7.77869 8.51333 7.24057 8.2661 6.69192 7.75402C6.14327 7.24195 5.87839 6.73971 5.74916 6.37787C5.71424 6.2801 5.6891 6.19218 5.67101 6.11672Z" fill="#3C3C43" fill-opacity="0.6"/>
</svg>
