<svg width="36" height="33" viewBox="0 0 36 33" fill="none" xmlns="http://www.w3.org/2000/svg">
<path d="M3.81362 3.24811H11.7684L14.3325 9.12399L10.2135 11.6411C9.7206 11.9424 9.42454 12.4494 9.42454 12.9924C9.42904 13.1445 9.42455 12.9941 9.42455 12.9941L9.42455 12.9958L9.42456 12.9994L9.42461 13.0076L9.42488 13.0276C9.42514 13.0426 9.42558 13.0608 9.42633 13.0821C9.42783 13.1246 9.43054 13.1797 9.43539 13.2464C9.44509 13.3797 9.46336 13.56 9.49772 13.7804C9.56638 14.221 9.69965 14.8246 9.95839 15.5361C10.4779 16.9648 11.4987 18.8146 13.4869 20.637C15.475 22.4595 17.493 23.3952 19.0515 23.8715C19.8278 24.1087 20.4862 24.2308 20.9668 24.2938C21.2073 24.3253 21.4039 24.342 21.5494 24.3509C21.6221 24.3553 21.6822 24.3578 21.7286 24.3592C21.7519 24.3599 21.7717 24.3603 21.788 24.3605L21.8099 24.3608L21.8188 24.3608L21.8228 24.3608H21.8246C21.8246 24.3608 22.0224 24.3509 21.8264 24.3608C22.4975 24.3608 23.111 24.0133 23.4111 23.4631L24.5976 21.2878L32.4566 22.4885V29.5042C28.7164 30 18.6151 30.4887 10.6773 23.2125C2.73959 15.9362 3.27272 6.67665 3.81362 3.24811ZM13.0984 13.7819L16.298 11.8266C17.6922 10.9746 18.2447 9.3438 17.6224 7.91767L15.0584 2.04179C14.5203 0.80862 13.2174 0 11.7684 0H3.72105C2.11145 0 0.596332 1.02504 0.332093 2.62594C-0.269061 6.26805 -1.08732 17.0217 8.17177 25.5092C17.4308 33.9967 29.1621 33.2466 33.1353 32.6956C34.8818 32.4534 36 31.0645 36 29.589V22.4885C36 20.9007 34.7477 19.5456 33.0391 19.2846L25.1801 18.0839C23.6457 17.8495 22.1239 18.5598 21.4283 19.8352L20.8144 20.9607C20.6214 20.9173 20.406 20.8615 20.1721 20.7901C19.0731 20.4543 17.5477 19.7659 15.9924 18.3403C14.4372 16.9146 13.6863 15.5163 13.3199 14.5089C13.221 14.2367 13.1497 13.992 13.0984 13.7819Z" fill="#A0A3BD"/>
</svg>
