<svg width="595" height="638" viewBox="0 0 595 638" fill="none" xmlns="http://www.w3.org/2000/svg">
<g filter="url(#filter0_i_91_250)">
<circle cx="297.5" cy="340.005" r="292.5" stroke="#09CE35" stroke-width="10" stroke-dasharray="10 10"/>
<path d="M509.617 271.883L510.968 273.986L510.968 273.986L509.617 271.883ZM522.443 265.748C522.737 264.399 521.881 263.067 520.532 262.773L498.549 257.981C497.199 257.687 495.867 258.543 495.573 259.892C495.279 261.241 496.135 262.573 497.484 262.867L517.025 267.126L512.766 286.667C512.472 288.016 513.327 289.348 514.676 289.642C516.025 289.936 517.357 289.081 517.651 287.732L522.443 265.748ZM249.14 217.901L248.212 215.58L249.14 217.901ZM233.504 224.152L232.576 221.831L233.504 224.152ZM185.803 233.334L185.803 230.834L185.803 233.334ZM370.446 249.492L372.389 247.918L370.446 249.492ZM510.968 273.986L521.351 267.319L518.649 263.112L508.266 269.779L510.968 273.986ZM248.212 215.58L232.576 221.831L234.432 226.474L250.068 220.223L248.212 215.58ZM185.803 230.834L59 230.834L59 235.834L185.803 235.834L185.803 230.834ZM232.576 221.831C217.699 227.778 201.825 230.834 185.803 230.834L185.803 235.834C202.46 235.834 218.965 232.657 234.432 226.474L232.576 221.831ZM372.389 247.918C342.553 211.095 292.219 197.987 248.212 215.58L250.068 220.223C292.04 203.443 340.048 215.945 368.504 251.066L372.389 247.918ZM508.266 269.779C464.022 298.188 405.49 288.771 372.389 247.918L368.504 251.066C403.209 293.899 464.579 303.772 510.968 273.986L508.266 269.779Z" fill="url(#paint0_linear_91_250)"/>
<path d="M373.084 393.899L370.791 394.894L373.084 393.899ZM433.582 537.831C434.866 538.338 436.318 537.708 436.825 536.424L445.091 515.497C445.598 514.213 444.968 512.761 443.684 512.253C442.4 511.746 440.948 512.376 440.441 513.66L433.093 532.262L414.492 524.914C413.208 524.407 411.755 525.037 411.248 526.321C410.741 527.605 411.371 529.058 412.655 529.565L433.582 537.831ZM241.891 408.738L243.297 406.671L241.891 408.738ZM172.843 361.764L174.25 359.697L172.843 361.764ZM147.81 338.343L145.841 339.883L147.81 338.343ZM300.409 392.765L302.67 393.83L300.409 392.765ZM370.791 394.894L432.206 536.5L436.794 534.511L375.378 392.904L370.791 394.894ZM243.297 406.671L174.25 359.697L171.437 363.831L240.484 410.805L243.297 406.671ZM149.779 336.802L66.9689 230.965L63.0311 234.046L145.841 339.883L149.779 336.802ZM174.25 359.697C164.958 353.376 156.703 345.652 149.779 336.802L145.841 339.883C153.084 349.14 161.719 357.219 171.437 363.831L174.25 359.697ZM298.147 391.699C288.35 412.485 262.296 419.597 243.297 406.671L240.484 410.805C262.025 425.46 291.563 417.397 302.67 393.83L298.147 391.699ZM375.378 392.904C360.869 359.451 313.693 358.715 298.147 391.699L302.67 393.83C316.382 364.737 357.993 365.386 370.791 394.894L375.378 392.904Z" fill="url(#paint1_linear_91_250)"/>
<path d="M254.689 56.0904C253.355 56.4478 252.564 57.8186 252.921 59.1523L258.745 80.8856C259.102 82.2193 260.473 83.0107 261.806 82.6534C263.14 82.296 263.932 80.9252 263.574 79.5915L258.398 60.273L277.716 55.0966C279.05 54.7393 279.841 53.3684 279.484 52.0347C279.127 50.7011 277.756 49.9096 276.422 50.267L254.689 56.0904ZM295.955 305.551L295.732 303.061L295.955 305.551ZM225.534 311.861L225.757 314.351L225.534 311.861ZM139.658 516.101L139.09 513.667L139.658 516.101ZM178.089 414.706L180.128 413.259L178.089 414.706ZM383.275 243.149L385.557 244.17L385.557 244.17L383.275 243.149ZM340.604 104.848L256.586 56.3402L254.086 60.6703L338.104 109.178L340.604 104.848ZM295.732 303.061L225.311 309.371L225.757 314.351L296.179 308.041L295.732 303.061ZM139.09 513.667L130.933 515.571L132.069 520.44L140.226 518.536L139.09 513.667ZM176.049 416.152C201.871 452.557 182.554 503.523 139.09 513.667L140.226 518.536C187.15 507.585 208.005 452.562 180.128 413.259L176.049 416.152ZM225.311 309.371C173.195 314.041 145.777 373.473 176.049 416.152L180.128 413.259C152.087 373.727 177.484 318.677 225.757 314.351L225.311 309.371ZM380.993 242.128C365.693 276.324 333.038 299.717 295.732 303.061L296.179 308.041C335.296 304.535 369.521 280.011 385.557 244.17L380.993 242.128ZM338.104 109.178C384.322 135.862 402.795 193.4 380.993 242.128L385.557 244.17C408.4 193.116 389.054 132.821 340.604 104.848L338.104 109.178Z" fill="url(#paint2_linear_91_250)"/>
<circle cx="65.5" cy="233.005" r="5.5" fill="#005DFF"/>
<circle cx="127.5" cy="520.005" r="5.5" fill="#FFA800"/>
<path d="M490 364.505L496.641 400.871L503.377 384.197L520.131 383.826L490 364.505Z" fill="#005DFF" stroke="#EFEFEF" stroke-width="3" stroke-miterlimit="10"/>
<path d="M312 610.366L302.161 556L292.189 580.928L267.392 581.482L312 610.366Z" fill="#FF7101" stroke="#EFEFEF" stroke-width="3" stroke-miterlimit="10"/>
<path d="M127 59L117.622 6L108.117 30.3014L84.4824 30.8419L127 59Z" fill="#EFC100" stroke="#EFEFEF" stroke-width="3" stroke-miterlimit="10"/>
<g filter="url(#filter1_i_91_250)">
<circle cx="28" cy="212.505" r="20" fill="#0C5CD9"/>
</g>
<circle cx="28" cy="212.505" r="19.5" stroke="#2343B5"/>
<g filter="url(#filter2_i_91_250)">
<circle cx="230" cy="44.5054" r="20" fill="#FF015C"/>
</g>
<circle cx="230" cy="44.5054" r="19.5" stroke="#FF015C"/>
<g filter="url(#filter3_i_91_250)">
<circle cx="80" cy="535.505" r="20" fill="#FFA800"/>
</g>
<circle cx="80" cy="535.505" r="19.5" stroke="#FFA800"/>
<g filter="url(#filter4_i_91_250)">
<circle cx="457" cy="593.505" r="20" fill="#0ABD4E"/>
</g>
<circle cx="457" cy="593.505" r="19.5" stroke="#0ABD4E"/>
<g filter="url(#filter5_i_91_250)">
<circle cx="566" cy="208.505" r="20" fill="#BFA925"/>
</g>
<circle cx="566" cy="208.505" r="19.5" stroke="#BFA925"/>
</g>
<defs>
<filter id="filter0_i_91_250" x="0" y="0.48291" width="595" height="641.022" filterUnits="userSpaceOnUse" color-interpolation-filters="sRGB">
<feFlood flood-opacity="0" result="BackgroundImageFix"/>
<feBlend mode="normal" in="SourceGraphic" in2="BackgroundImageFix" result="shape"/>
<feColorMatrix in="SourceAlpha" type="matrix" values="0 0 0 0 0 0 0 0 0 0 0 0 0 0 0 0 0 0 127 0" result="hardAlpha"/>
<feOffset dy="4"/>
<feGaussianBlur stdDeviation="2"/>
<feComposite in2="hardAlpha" operator="arithmetic" k2="-1" k3="1"/>
<feColorMatrix type="matrix" values="0 0 0 0 0 0 0 0 0 0 0 0 0 0 0 0 0 0 0.25 0"/>
<feBlend mode="normal" in2="shape" result="effect1_innerShadow_91_250"/>
</filter>
<filter id="filter1_i_91_250" x="8" y="192.505" width="40" height="44" filterUnits="userSpaceOnUse" color-interpolation-filters="sRGB">
<feFlood flood-opacity="0" result="BackgroundImageFix"/>
<feBlend mode="normal" in="SourceGraphic" in2="BackgroundImageFix" result="shape"/>
<feColorMatrix in="SourceAlpha" type="matrix" values="0 0 0 0 0 0 0 0 0 0 0 0 0 0 0 0 0 0 127 0" result="hardAlpha"/>
<feOffset dy="4"/>
<feGaussianBlur stdDeviation="2"/>
<feComposite in2="hardAlpha" operator="arithmetic" k2="-1" k3="1"/>
<feColorMatrix type="matrix" values="0 0 0 0 0 0 0 0 0 0 0 0 0 0 0 0 0 0 0.25 0"/>
<feBlend mode="normal" in2="shape" result="effect1_innerShadow_91_250"/>
</filter>
<filter id="filter2_i_91_250" x="210" y="24.5054" width="40" height="44" filterUnits="userSpaceOnUse" color-interpolation-filters="sRGB">
<feFlood flood-opacity="0" result="BackgroundImageFix"/>
<feBlend mode="normal" in="SourceGraphic" in2="BackgroundImageFix" result="shape"/>
<feColorMatrix in="SourceAlpha" type="matrix" values="0 0 0 0 0 0 0 0 0 0 0 0 0 0 0 0 0 0 127 0" result="hardAlpha"/>
<feOffset dy="4"/>
<feGaussianBlur stdDeviation="2"/>
<feComposite in2="hardAlpha" operator="arithmetic" k2="-1" k3="1"/>
<feColorMatrix type="matrix" values="0 0 0 0 0 0 0 0 0 0 0 0 0 0 0 0 0 0 0.25 0"/>
<feBlend mode="normal" in2="shape" result="effect1_innerShadow_91_250"/>
</filter>
<filter id="filter3_i_91_250" x="60" y="515.505" width="40" height="44" filterUnits="userSpaceOnUse" color-interpolation-filters="sRGB">
<feFlood flood-opacity="0" result="BackgroundImageFix"/>
<feBlend mode="normal" in="SourceGraphic" in2="BackgroundImageFix" result="shape"/>
<feColorMatrix in="SourceAlpha" type="matrix" values="0 0 0 0 0 0 0 0 0 0 0 0 0 0 0 0 0 0 127 0" result="hardAlpha"/>
<feOffset dy="4"/>
<feGaussianBlur stdDeviation="2"/>
<feComposite in2="hardAlpha" operator="arithmetic" k2="-1" k3="1"/>
<feColorMatrix type="matrix" values="0 0 0 0 0 0 0 0 0 0 0 0 0 0 0 0 0 0 0.25 0"/>
<feBlend mode="normal" in2="shape" result="effect1_innerShadow_91_250"/>
</filter>
<filter id="filter4_i_91_250" x="437" y="573.505" width="40" height="44" filterUnits="userSpaceOnUse" color-interpolation-filters="sRGB">
<feFlood flood-opacity="0" result="BackgroundImageFix"/>
<feBlend mode="normal" in="SourceGraphic" in2="BackgroundImageFix" result="shape"/>
<feColorMatrix in="SourceAlpha" type="matrix" values="0 0 0 0 0 0 0 0 0 0 0 0 0 0 0 0 0 0 127 0" result="hardAlpha"/>
<feOffset dy="4"/>
<feGaussianBlur stdDeviation="2"/>
<feComposite in2="hardAlpha" operator="arithmetic" k2="-1" k3="1"/>
<feColorMatrix type="matrix" values="0 0 0 0 0 0 0 0 0 0 0 0 0 0 0 0 0 0 0.25 0"/>
<feBlend mode="normal" in2="shape" result="effect1_innerShadow_91_250"/>
</filter>
<filter id="filter5_i_91_250" x="546" y="188.505" width="40" height="44" filterUnits="userSpaceOnUse" color-interpolation-filters="sRGB">
<feFlood flood-opacity="0" result="BackgroundImageFix"/>
<feBlend mode="normal" in="SourceGraphic" in2="BackgroundImageFix" result="shape"/>
<feColorMatrix in="SourceAlpha" type="matrix" values="0 0 0 0 0 0 0 0 0 0 0 0 0 0 0 0 0 0 127 0" result="hardAlpha"/>
<feOffset dy="4"/>
<feGaussianBlur stdDeviation="2"/>
<feComposite in2="hardAlpha" operator="arithmetic" k2="-1" k3="1"/>
<feColorMatrix type="matrix" values="0 0 0 0 0 0 0 0 0 0 0 0 0 0 0 0 0 0 0.25 0"/>
<feBlend mode="normal" in2="shape" result="effect1_innerShadow_91_250"/>
</filter>
<linearGradient id="paint0_linear_91_250" x1="503.163" y1="543.676" x2="116.435" y2="167.856" gradientUnits="userSpaceOnUse">
<stop stop-color="#9EFF00"/>
<stop offset="1" stop-color="#FF006B"/>
</linearGradient>
<linearGradient id="paint1_linear_91_250" x1="422.5" y1="643.505" x2="40.5003" y2="325.005" gradientUnits="userSpaceOnUse">
<stop stop-color="#09CE35"/>
<stop offset="1" stop-color="#0C41FE"/>
</linearGradient>
<linearGradient id="paint2_linear_91_250" x1="112.725" y1="515.033" x2="346.06" y2="110.885" gradientUnits="userSpaceOnUse">
<stop stop-color="#FFA800"/>
<stop offset="1" stop-color="#FF005C"/>
</linearGradient>
</defs>
</svg>
